{"title":"Silk Season 2 x264 Legal Drama BBC RB58","uid":9711714,"size":2796676147,"categoryP":"video","categoryS":"tv_shows","magnet":"?xt=urn:btih:4a54e680d5c146f8a9c3904fdc16897bfab6e31a&amp;dn=Silk+Season+2+x264+Legal+Drama+BBC+RB58&amp;tr=udp%3A%2F%2Ftracker.openbittorrent.com%3A80&amp;tr=udp%3A%2F%2Fopen.demonii.com%3A1337&amp;tr=udp%3A%2F%2Ftracker.coppersurfer.tk%3A6969&amp;tr=udp%3A%2F%2Fexodus.desync.com%3A6969","seeders":14,"leechers":6,"uploader":"RedBaron58","files":6,"time":1394119193,"description":"Silk BBC Season 2 (2012) 6 part series of 1 hour episodes x264 format mp4.\n &lt;a href=&quot;\nhttp://www.imdb.com/title/tt1717455/&quot; rel=&quot;nofollow&quot; target=&quot;_NEW&quot;&gt;\nhttp://www.imdb.com/title/tt1717455/&lt;/a&gt; \n\n\n\nPlease be patient My upload speed is limited, but I am online most the time and during the night.\nThank you for your kind comments and thumbs ups on my other torrents, your feedback is welcome.\n\n\nAbout the Series:\n\nMartha Costello (Maxine Peake) is incredibly young to have got silk, she is a brilliant and passionate \nbarrister but now the stakes are higher than ever. \nTensions are also running high in the chambers, with the still ambitious Clive Reader (Rupert Penry-Jones) \nhaving to deal with his failure to become a QC, and Billy Lamb under pressure to keep the chambers afloat.\n\n\nI hope you enjoy.\n\n\nTechnical:\n\nAll six episodes encoded to same settings.\n\nGeneral\nComplete name                            : F:Silk S02Silk S02E01 x264 RB58.mp4\nFormat                                   : MPEG-4\nFormat profile                           : Base Media / Version 2\nCodec ID                                 : mp42\nFile size                                : 442 MiB\nDuration                                 : 58mn 19s\nOverall bit rate mode                    : Variable\nOverall bit rate                         : 1 059 Kbps\nEncoded date                             : UTC 2014-03-01 21:25:34\nTagged date                              : UTC 2014-03-01 21:38:08\nWriting application                      : HandBrake 0.9.8 2012071700\n\nVideo\nID                                       : 1\nFormat                                   : AVC\nFormat/Info                              : Advanced Video Codec\nFormat profile                           : &lt;a class=&quot;__cf_email__&quot; href=&quot;/cdn-cgi/l/email-protection&quot; data-cfemail=&quot;6a270b03042a2659445a&quot;&gt;[email&amp;#160;protected]&lt;/a&gt;&lt;script cf-hash='f9e31' type=&quot;text/javascript&quot;&gt;\n/* &lt;![CDATA[ */!function(){try{var t=&quot;currentScript&quot;in document?document.currentScript:function(){for(var t=document.getElementsByTagName(&quot;script&quot;),e=t.length;e--;)if(t[e].getAttribute(&quot;cf-hash&quot;))return t[e]}();if(t&amp;&amp;t.previousSibling){var e,r,n,i,c=t.previousSibling,a=c.getAttribute(&quot;data-cfemail&quot;);if(a){for(e=&quot;&quot;,r=parseInt(a.substr(0,2),16),n=2;a.length-n;n+=2)i=parseInt(a.substr(n,2),16)^r,e+=String.fromCharCode(i);e=document.createTextNode(e),c.parentNode.replaceChild(e,c)}}}catch(u){}}();/* ]]&gt; */&lt;/script&gt;\nFormat settings, CABAC                   : Yes\nFormat settings, ReFrames                : 4 frames\nCodec ID                                 : avc1\nCodec ID/Info                            : Advanced Video Coding\nDuration                                 : 58mn 19s\nBit rate mode                            : Variable\nBit rate                                 : 900 Kbps\nWidth                                    : 720 pixels\nHeight                                   : 576 pixels\nDisplay aspect ratio                     : 16:9\nFrame rate mode                          : Constant\nFrame rate                               : 25.000 fps\nStandard                                 : PAL\nColor space                              : YUV\nChroma subsampling                       : 4:2:0\nBit depth                                : 8 bits\nScan type                                : Progressive\nBits/(Pixel*Frame)                       : 0.087\nStream size                              : 376 MiB (85%)\nWriting library                          : x264 core 120\nEncoding settings                        : cabac=1 / ref=1 / deblock=1:0:0 / analyse=0x1:0x111 / me=hex / subme=2 / psy=1 / psy_rd=1.00:0.00 / mixed_ref=0 / me_range=16 / chroma_me=1 / trellis=0 / 8x8dct=0 / cqm=0 / deadzone=21,11 / fast_pskip=1 / chroma_qp_offset=0 / threads=3 / sliced_threads=0 / nr=0 / decimate=1 / interlaced=0 / bluray_compat=0 / constrained_intra=0 / bframes=3 / b_pyramid=2 / b_adapt=1 / b_bias=0 / direct=1 / weightb=1 / open_gop=0 / weightp=1 / keyint=250 / keyint_min=25 / scenecut=40 / intra_refresh=0 / rc_lookahead=10 / rc=2pass / mbtree=1 / bitrate=900 / ratetol=1.0 / qcomp=0.60 / qpmin=3 / qpmax=69 / qpstep=4 / cplxblur=20.0 / qblur=0.5 / ip_ratio=1.40 / aq=1:1.00\nEncoded date                             : UTC 2014-03-01 21:25:34\nTagged date                              : UTC 2014-03-01 21:38:08\nColor primaries                          : BT.601 NTSC\nTransfer characteristics                 : BT.709\nMatrix coefficients                      : BT.601\n\nAudio\nID                                       : 2\nFormat                                   : MPEG Audio\nFormat version                           : Version 1\nFormat profile                           : Layer 3\nCodec ID                                 : 69\nDuration                                 : 58mn 19s\nBit rate mode                            : Variable\nBit rate                                 : 154 Kbps\nMaximum bit rate                         : 180 Kbps\nChannel(s)                               : 2 channels\nSampling rate                            : 48.0 KHz\nCompression mode                         : Lossy\nDelay relative to video                  : 80ms\nStream size                              : 64.2 MiB (15%)\nLanguage                                 : English\nEncoded date                             : UTC 2014-03-01 21:25:34\nTagged date                              : UTC 2014-03-01 21:38:07\n\nText\nID                                       : 3\nFormat                                   : Apple text\nCodec ID                                 : text\nDuration                                 : 58mn 19s\nBit rate mode                            : Constant\nBit rate                                 : 0 bps\nStream size                              : 138 Bytes (0%)\nEncoded date                             : UTC 2014-03-01 21:25:34\nTagged date                              : UTC 2014-03-01 21:38:08","torrent":{"xt":"urn:btih:4a54e680d5c146f8a9c3904fdc16897bfab6e31a","amp;dn":"Silk+Season+2+x264+Legal+Drama+BBC+RB58","amp;tr":["udp%3A%2F%2Ftracker.openbittorrent.com%3A80","udp%3A%2F%2Fopen.demonii.com%3A1337","udp%3A%2F%2Ftracker.coppersurfer.tk%3A6969","udp%3A%2F%2Fexodus.desync.com%3A6969"],"infoHash":"4a54e680d5c146f8a9c3904fdc16897bfab6e31a","infoHashBuffer":{"type":"Buffer","data":[74,84,230,128,213,193,70,248,169,195,144,79,220,22,137,123,250,182,227,26]},"announce":[],"urlList":[]}}